<svg width="263" height="91" viewBox="0 0 263 91" fill="none" xmlns="http://www.w3.org/2000/svg">
<path d="M45.9354 56.7286C45.9167 56.5791 46.1783 55.9064 46.3278 55.5887C46.4026 55.4205 46.4586 55.3084 46.4773 55.2897C46.6268 55.0094 46.8137 54.7478 47.038 54.4675C47.8042 53.5519 48.3087 53.0474 46.5894 53.1408C44.8701 53.2342 44.7206 53.2342 43.1882 52.2439C41.6558 51.2535 40.3289 48.9177 39.0208 47.8526C36.5913 45.8531 37.6378 45.1617 39.8057 45.2365C41.9922 45.3112 44.4403 45.087 45.655 46.2082C46.9258 47.4041 47.6547 47.9086 48.7759 48.3571C50.0654 48.8803 50.9625 48.1142 50.7008 47.0117C50.4205 45.9092 49.8972 43.48 47.2809 42.1533C44.6646 40.8078 41.5997 39.1821 37.2641 38.2665C34.3674 37.6499 30.8541 37.0519 27.1164 34.3798C23.6031 31.8758 21.3792 25.8401 20.8185 23.7286C20.2953 21.7852 21.2484 21.5049 21.9211 23.523C22.7808 26.1017 26.5745 30.5304 29.359 32.1748C31.5829 33.5015 31.5829 30.8667 30.3308 27.6153C29.3216 24.9806 27.9013 23.6538 26.5558 22.1963C25.1916 20.7388 23.5283 18.0853 22.351 15.2824C21.2671 12.685 21.0054 9.54567 21.3979 7.67704C21.7716 5.80841 23.3601 3.21102 25.0794 1.97773C26.724 0.800489 27.7892 0.426763 29.1908 0.0717235C30.4055 -0.227257 31.0596 0.464136 29.3403 1.11816C26.6679 2.1459 24.687 4.463 23.9021 7.43412C23.3788 9.39618 23.7339 12.5355 25.3784 14.6283C27.023 16.7212 28.3312 17.1136 28.7049 19.4494C29.0787 21.8039 31.5081 24.7563 32.4052 19.5615C32.6481 18.1787 33.4891 16.4596 32.4612 14.4041C31.4334 12.3486 30.499 10.1249 31.0409 7.95734C31.5829 5.78973 33.3022 3.34182 34.9468 1.95904C36.1241 0.968665 36.5539 1.21159 35.6195 2.57569C34.2179 4.61249 33.5638 5.65893 33.2648 8.44318C33.0779 10.1436 33.5078 11.3209 34.8533 13.0774C36.1989 14.8339 36.7408 14.4041 38.3667 13.4698C40.0673 12.4794 40.4037 11.7507 41.525 9.71385C42.3659 8.21895 43.3003 7.20989 44.7393 6.48112C46.1783 5.75236 46.496 6.369 45.1691 7.30332C43.1695 8.70479 43.3003 12.2739 41.2073 14.0678C39.1142 15.8616 36.909 17.1323 35.713 19.7484C34.5356 22.3645 33.4704 26.4755 33.8628 28.8299C34.2553 31.1844 33.9189 33.651 37.6752 35.0711C39.787 35.8747 40.385 33.3894 39.843 31.3526C39.2824 29.2971 39.6001 27.2416 41.0017 24.9992C41.9548 23.4856 42.9079 22.2897 44.1787 21.0751C45.4121 19.8792 46.5334 20.4024 45.2252 22.215C43.5993 24.4386 42.0109 27.2229 42.0856 29.4092C42.1604 31.5955 42.2164 35.8373 45.0383 36.4726C47.0006 36.9211 47.337 38.4907 49.8412 40.0043C51.5792 41.0694 53.4106 41.4992 53.504 43.2184C53.5975 44.9375 54.7375 47.1051 57.3912 47.0491C60.0449 46.9743 61.2222 45.5168 61.4465 43.4987C61.6707 41.4805 61.9324 39.7427 64.1376 39.3129C66.511 38.8458 68.1929 38.2665 69.3516 36.4352C70.5102 34.604 71.4446 31.0723 71.3512 29.3531C71.2577 27.634 69.202 23.2988 68.6227 21.7104C68.0434 20.1221 68.7722 18.9449 69.8935 21.0751C71.2391 23.6165 73.5938 26.4568 73.6872 29.185C73.7806 31.9132 72.2856 34.4358 73.0518 35.613C74.0049 37.0706 77.1819 36.4539 78.9572 34.7909C80.77 33.0904 81.91 24.121 80.3588 19.655C79.4431 17.0015 77.2566 14.7591 75.799 12.5729C74.3973 10.48 72.4725 8.6861 71.0709 7.02302C69.0525 4.63118 70.8653 4.93016 72.3977 6.21951C73.8928 7.4715 75.9111 9.20932 77.0137 10.8163C78.2284 12.5542 79.7608 14.3667 80.3588 15.4132C81.7605 17.8611 82.7883 16.3288 83.1621 14.1612C83.5545 11.9936 83.3116 10.0876 83.0126 8.4245C82.6762 6.63061 82.1716 5.54681 80.8074 3.52869C79.7608 1.97773 80.0972 0.763116 81.8539 2.50094C83.405 4.03322 84.5824 5.60287 85.1056 6.7801C86.2082 9.24669 86.0587 10.0502 85.8158 12.386C85.5728 14.7218 84.9561 16.5157 84.4889 18.5151C83.9283 20.963 83.6853 22.7569 85.6102 21.4488C87.2921 20.309 89.46 17.4873 90.3944 15.5066C91.1232 13.9556 91.6091 11.4143 91.5343 9.54567C91.4596 7.78916 90.9176 6.369 89.5347 3.77161C88.077 1.04341 88.1518 -0.0777668 90.7121 2.35145C93.291 4.78067 93.7956 6.94828 94.3375 9.32144C94.9729 12.0683 94.7487 14.0304 93.7769 16.7586C92.7864 19.5802 91.2727 20.4398 88.7498 23.0185C86.7876 25.0366 84.9374 26.9239 84.0778 29.0728C83.2181 31.2031 82.807 34.2676 85.1617 33.5576C87.5351 32.8662 90.5812 31.6702 92.8238 29.3158C94.0199 28.0451 96.1129 24.8124 96.6362 23.1119C97.1595 21.4115 98.6358 21.1872 98.1125 23.467C97.5893 25.7467 96.3185 29.2597 94.3002 31.3339C92.151 33.5576 89.9085 35.3701 86.6941 36.5287C82.9191 37.8928 80.0785 38.5655 75.6308 39.7427C71.7063 40.7705 69.6506 40.9573 66.9408 42.5644C65.2402 43.5734 64.0068 45.9466 63.6143 47.2172C63.39 47.9834 64.0068 48.3758 64.8103 47.946C67.8565 46.1334 68.8843 46.3016 70.7532 46.5072C72.622 46.7314 73.5938 46.9369 75.2383 47.1238C76.2662 47.2359 76.4157 47.9086 75.4626 48.7682C74.0423 50.0389 73.0892 51.4964 71.8184 52.356C70.1365 53.4958 68.1929 53.664 66.4736 53.4398C66.3054 53.4211 65.6326 53.2903 65.5018 53.5519C65.3897 53.7761 65.8008 54.0938 65.8008 54.2993C65.8943 55.8129 46.0662 57.775 45.9167 56.6912L45.9354 56.7286Z" fill="#3A3A3A"/>
<path d="M80.77 81.6935V34.5106H92.5435V59.8679H92.8238L103.233 47.7965H115.978L92.5622 73.4341V81.7121H80.7887L80.77 81.6935ZM105.588 81.6935L98.3742 72.4624L105.569 64.5955L118.333 81.6935H105.588Z" fill="white"/>
<path d="M143.88 82.5156C140.142 82.5156 137.152 81.8803 134.909 80.6096C132.667 79.339 131.06 77.5825 130.051 75.3214C129.041 73.023 128.537 70.3509 128.537 67.3237V56.8781L120.314 52.9166V48.6C120.314 48.3758 120.482 48.1889 120.725 48.1702L129.097 47.7778L130.611 37.6125H140.329V47.7778H153.897V56.8594H140.329V67.0995C140.329 68.6878 140.572 69.9398 141.076 70.8928C141.581 71.7897 142.31 72.4437 143.263 72.8548C144.272 73.2099 145.506 73.3967 146.963 73.3967C148.159 73.3967 149.243 73.3033 150.252 73.1164C151.299 72.8922 152.289 72.6119 153.205 72.2942L155.261 80.7031C153.747 81.1142 152.065 81.4879 150.196 81.8616C148.327 82.2727 146.216 82.4783 143.898 82.4783L143.88 82.5156Z" fill="white"/>
<path d="M175.463 33.2586C174.042 31.9505 172.248 31.2965 170.062 31.2965C167.875 31.2965 166.062 31.9505 164.642 33.2586C163.222 34.5292 162.53 36.1736 162.53 38.2104C162.53 40.2473 163.222 41.8916 164.642 43.1623C166.062 44.3769 167.857 44.9936 170.062 44.9936C172.267 44.9936 174.042 44.3769 175.463 43.1623C176.883 41.8916 177.593 40.2473 177.593 38.2104C177.593 36.1736 176.883 34.5292 175.463 33.2586Z" fill="white"/>
<path d="M231.209 11.2274C230.63 10.835 224.164 6.46244 214.353 9.99415C211.381 11.0593 207.195 14.7031 202.729 19.3373C202.747 19.3373 203.345 20.01 203.009 20.5145C202.672 21.0191 201.14 22.5513 200.916 22.4579C200.804 22.4205 200.598 22.1029 200.411 21.8039C195.889 26.7371 191.273 32.3803 187.479 37.2014C187.479 37.2014 187.479 37.4817 187.367 37.8554C187.33 37.9488 187.143 37.9675 186.9 37.9488C184.47 41.0695 182.62 43.9471 181.013 45.6476C181.181 45.4794 176.247 50.6368 176.883 52.2252C176.771 52.2812 177.313 52.3186 177.201 52.3747C178.826 52.412 180.284 53.963 180.396 55.57C180.49 56.7472 180.209 57.7937 179.219 58.5224C178.191 59.2512 176.733 59.3446 175.537 58.8775V78.6102C175.537 80.3294 174.136 81.7495 172.398 81.7495H166.903C165.165 81.7495 163.764 80.3294 163.764 78.6102V54.0004C163.839 49.4222 169.819 47.591 172.715 51.1414L173.37 51.9449C174.453 51.1787 179.555 45.1618 180.153 44.6199L180.34 44.4143C181.574 42.7138 183.386 40.2659 185.554 37.4443C185.405 37.3509 185.311 37.2574 185.293 37.1827C185.162 36.7716 185.554 35.9494 186.133 35.9494C186.302 35.9494 186.451 36.0055 186.601 36.0802C194.468 25.9522 206.205 12.0496 213.213 9.35881C223.94 5.26651 230.611 10.7042 231.209 11.2274Z" fill="white"/>
<path d="M262.755 73.7705C262.045 70.8554 260.363 69.0428 257.709 68.3514C255.093 67.604 251.654 67.7348 247.43 68.7625L241.992 70.0893C240.198 70.5191 238.89 70.6872 238.049 70.5751C237.208 70.463 236.704 70.0706 236.535 69.3979C236.423 68.9307 236.405 68.5757 236.479 68.3328C236.591 68.0338 236.797 67.6974 237.115 67.305C237.918 67.305 238.684 67.2303 239.376 67.1555C240.067 67.0247 240.684 66.8939 241.245 66.7631C243.805 66.1465 246.01 65.2308 247.842 64.0162C249.71 62.8016 251.056 61.288 251.897 59.4754C252.719 57.6255 252.813 55.4392 252.215 52.9539C252.065 52.3186 251.804 51.7393 251.448 51.1974C251.131 50.6555 250.832 50.207 250.514 49.8707L252.943 49.2727C254.794 48.8243 255.915 46.9743 255.466 45.1244L255.167 43.9285C254.719 42.0785 252.869 40.9573 251.019 41.4058L241.413 43.7416C239.712 43.6108 237.843 43.7976 235.788 44.3022C233.321 44.9001 231.097 45.8905 229.116 47.2733C227.173 48.6 225.752 50.2818 224.855 52.3373C223.94 54.3554 223.809 56.6725 224.444 59.2886C224.893 61.1012 225.715 62.6334 226.911 63.8667C228.107 65.0626 229.396 65.8848 230.779 66.352L230.835 66.6136C229.92 67.6414 229.21 68.7812 228.742 70.0145C228.275 71.2478 228.182 72.4064 228.443 73.5089C228.761 74.8169 229.322 75.8446 230.144 76.5921C230.985 77.2835 231.938 77.8067 232.966 78.1804L233.022 78.442C231.62 79.5819 230.63 80.7404 230.013 81.9364C229.453 83.151 229.322 84.403 229.639 85.711C230.107 87.617 231.116 88.9811 232.667 89.8033C234.274 90.6255 236.218 91.0179 238.516 90.9992C240.834 91.0179 243.3 90.7002 245.954 90.0649C249.972 89.0932 253.299 87.7665 255.971 86.0847C258.681 84.403 260.606 82.497 261.764 80.3854C262.96 78.2552 263.297 76.0502 262.736 73.7705H262.755ZM234.741 56.822C234.498 55.8503 234.48 55.0094 234.667 54.2807C234.853 53.5706 235.208 52.9913 235.732 52.5428C236.255 52.057 236.853 51.7393 237.526 51.5711C238.255 51.403 238.927 51.403 239.563 51.6085C240.236 51.758 240.815 52.113 241.319 52.6549C241.861 53.1969 242.235 53.9443 242.478 54.916C242.721 55.925 242.74 56.822 242.516 57.5881C242.329 58.2982 241.974 58.9149 241.469 59.382C240.983 59.8118 240.385 60.1108 239.656 60.2976C238.965 60.4658 238.292 60.4658 237.619 60.3163C236.946 60.1295 236.348 59.7557 235.863 59.1952C235.358 58.5972 234.984 57.7937 234.741 56.7846V56.822ZM252.345 78.3112C251.093 79.04 250.477 80.7031 249.374 81.6561C249.561 82.0859 249.636 82.7399 249.86 83.1697C246.926 83.45 244.814 83.9358 243.3 84.3656C242.179 84.6833 240.348 85.2812 239.058 83.8611C238.89 83.6742 238.834 83.4687 238.759 83.3378C238.722 83.1697 238.628 82.9081 238.628 82.5904C238.666 81.7682 239.002 81.301 239.17 80.9647C239.955 79.4698 241.207 78.5915 242.497 77.8441C242.628 77.6946 242.74 77.5451 242.871 77.433C243.3 77.0219 243.712 76.6108 244.179 76.2557C244.496 76.0128 244.665 75.8446 245.038 75.9194C245.169 75.9381 245.375 76.0502 245.543 76.1623C247.617 75.3027 249.785 75.6951 251.99 75.2467C252.887 75.0598 254.457 73.1538 255.336 73.5836C255.149 74.2376 254.924 74.9103 254.719 75.6017C255.242 76.2371 255.84 76.8724 256.513 77.2087C255.13 77.489 253.541 77.6572 252.345 78.3673V78.3112Z" fill="white"/>
<path d="M189.852 48.2637H199.439L200.262 52.3373H200.542C201.906 51.0292 203.532 49.8894 205.401 48.9551C207.27 47.9647 209.456 47.4602 211.979 47.4602C215.773 47.4602 218.539 48.7308 220.258 51.2535C221.996 53.7388 222.856 57.0836 222.856 61.288V82.1793H211.082V62.7829C211.082 60.8769 210.783 59.5128 210.185 58.6532C209.643 57.7937 208.615 57.3639 207.102 57.3639C205.999 57.3639 205.046 57.5881 204.224 58.0366C203.401 58.4851 202.542 59.1204 201.626 59.9426V82.1793H189.852V48.2637Z" fill="white"/>
<path d="M15.1187 84.6459C12.6518 84.6459 10.0355 84.1227 7.25098 83.0949C4.50383 82.0485 2.09307 80.1612 0 77.3956L6.63428 70.1453C7.90507 71.5468 9.23192 72.6493 10.6148 73.4715C11.9791 74.2376 13.362 74.63 14.7262 74.63C16.6511 74.63 18.1088 74.1629 19.1179 73.2099C20.1645 72.2195 20.6877 70.3322 20.6877 67.5853V49.553H3.75631V39.7801H32.4425V68.5196C32.4425 71.4534 31.8632 74.1442 30.7232 76.5921C29.6206 79.04 27.8266 81.0021 25.3224 82.497C22.8182 83.9358 19.4169 84.6646 15.1187 84.6646V84.6459Z" fill="#CD962B"/>
<path d="M50.2523 84.6459C47.8789 84.6459 45.8606 84.1787 44.2347 83.2257C42.5902 82.2354 41.3381 80.946 40.4597 79.3577C39.6001 77.7693 39.1516 76.0502 39.1516 74.2002C39.1516 70.4069 40.7961 67.5106 44.0852 65.5298C47.4117 63.493 52.9808 62.2784 60.7924 61.8673C60.6616 61.0451 60.3065 60.3911 59.7646 59.9052C59.2226 59.3633 58.4564 58.9709 57.5033 58.7467C56.5876 58.4664 55.5037 58.3356 54.2142 58.3356C53.2611 58.3356 52.2706 58.4477 51.2615 58.6719C50.2523 58.8588 49.1871 59.1765 48.0471 59.6249C47.2248 59.9239 46.3091 60.2976 45.3373 60.7461C44.7767 60.989 44.1226 60.7835 43.8423 60.2416L42.2725 52.6176C44.0105 51.6646 43.7302 51.8141 45.5055 51.1414C47.2809 50.4687 49.0936 49.9641 50.9251 49.6465C52.7565 49.2914 54.6253 49.1046 56.5315 49.1046C59.7646 49.1046 62.5865 49.6651 64.9598 50.805C67.3706 51.8888 69.2581 53.608 70.5663 55.9624C71.8931 58.2608 72.5472 61.2693 72.5472 64.9879V83.8424H62.9602L62.1379 80.3107H61.8576C60.1757 81.5253 58.3443 82.5717 56.382 83.4313C54.4198 84.2535 52.3641 84.6459 50.2149 84.6459H50.2523ZM54.0834 75.6952C55.4476 75.6952 56.681 75.4522 57.7836 74.9477C58.8862 74.4058 59.8767 73.7891 60.7924 73.1164V68.7812C58.0079 68.8747 55.8587 69.1176 54.3637 69.5287C52.85 69.9398 51.8034 70.4817 51.2054 71.1544C50.6634 71.7897 50.3831 72.4811 50.3831 73.2472C50.3831 73.7518 50.5139 74.2002 50.7943 74.6113C51.0746 74.9664 51.4857 75.2467 52.0277 75.4335C52.5696 75.6204 53.2611 75.7138 54.0834 75.7138V75.6952Z" fill="white"/>
</svg>
