<svg width="48" height="48" viewBox="0 0 48 48" fill="none" xmlns="http://www.w3.org/2000/svg">
<circle cx="24" cy="24" r="24" fill="#101010"/>
<path d="M16.0988 41.0208C14.7795 41.0208 13.3748 40.7426 11.8845 40.1863C10.4186 39.6299 9.12381 38.6139 8 37.1383L11.5547 33.2558C12.2387 34.0057 12.9472 34.5983 13.6801 35.0338C14.4131 35.445 15.146 35.6506 15.8789 35.6506C16.905 35.6506 17.6868 35.3966 18.2243 34.8886C18.7862 34.3564 19.0671 33.3525 19.0671 31.8769V22.2251H10.0155V17H25.3702V32.3849C25.3702 33.9573 25.0649 35.3966 24.4541 36.7029C23.8678 38.0092 22.9027 39.0614 21.5591 39.8597C20.2154 40.6338 18.3953 41.0208 16.0988 41.0208Z" fill="white"/>
<path d="M27 10.5205C27 9.17597 27.4448 8.0864 28.3345 7.25184C29.2242 6.41728 30.3012 6 31.5655 6C32.8064 6 33.8717 6.41728 34.7613 7.25184C35.6744 8.0864 36.131 9.17597 36.131 10.5205C36.131 11.8883 35.6744 12.9779 34.7613 13.7892C33.8717 14.6238 32.8064 15.0411 31.5655 15.0411C30.3012 15.0411 29.2242 14.6238 28.3345 13.7892C27.4448 12.9779 27 11.8883 27 10.5205Z" fill="white"/>
<path d="M27.4214 17.2711L39.6368 17.2711V20.6577L38.171 20.948V21.0448C38.6433 21.5286 39.0505 22.1011 39.3925 22.7623C39.7508 23.4235 39.93 24.1976 39.93 25.0845C39.93 26.4231 39.4739 27.3987 38.5619 28.0116C37.6661 28.6244 36.4608 28.9308 34.9461 28.9308H27.4214V24.7701H34.4086C35.0927 24.7701 35.5894 24.6653 35.8989 24.4556C36.2084 24.2621 36.3631 23.8992 36.3631 23.367C36.3631 22.98 36.2816 22.6413 36.1188 22.3511C35.9559 22.0608 35.7279 21.7544 35.4347 21.4318H27.4214V17.2711Z" fill="#CF960F"/>
<path d="M27.1283 36.7589C27.1283 35.6946 27.3807 34.6866 27.8856 33.7352C28.3905 32.7837 29.1153 32.0096 30.06 31.4129C31.0209 30.8162 32.1773 30.5179 33.5291 30.5179C34.881 30.5179 36.0292 30.8162 36.9738 31.4129C37.9348 32.0096 38.6677 32.7837 39.1726 33.7352C39.6775 34.6867 39.93 35.6946 39.93 36.7589C39.93 37.8233 39.6775 38.8312 39.1726 39.7827C38.6677 40.7342 37.9348 41.5083 36.9738 42.105C36.0292 42.7017 34.881 43 33.5291 43C32.1773 43 31.0209 42.7017 30.06 42.105C29.1153 41.5083 28.3905 40.7342 27.8856 39.7827C27.3807 38.8312 27.1283 37.8233 27.1283 36.7589ZM30.4997 36.7589C30.4997 37.2266 30.6219 37.6056 30.8662 37.8959C31.1105 38.1862 31.4606 38.3958 31.9167 38.5248C32.3727 38.67 32.9102 38.7425 33.5291 38.7425C34.148 38.7425 34.6855 38.67 35.1415 38.5248C35.5976 38.3958 35.9477 38.1862 36.192 37.8959C36.4364 37.6056 36.5585 37.2266 36.5585 36.7589C36.5585 36.2913 36.4364 35.9123 36.192 35.622C35.9477 35.3317 35.5976 35.114 35.1415 34.9689C34.6855 34.8399 34.148 34.7753 33.5291 34.7753C32.9102 34.7753 32.3727 34.8399 31.9167 34.9689C31.4606 35.114 31.1105 35.3317 30.8662 35.622C30.6219 35.9123 30.4997 36.2913 30.4997 36.7589Z" fill="#CF960F"/>
<path d="M27 10.5205C27 9.17597 27.4448 8.0864 28.3345 7.25184C29.2242 6.41728 30.3012 6 31.5655 6C32.8064 6 33.8717 6.41728 34.7613 7.25184C35.6744 8.0864 36.131 9.17597 36.131 10.5205C36.131 11.8883 35.6744 12.9779 34.7613 13.7892C33.8717 14.6238 32.8064 15.0411 31.5655 15.0411C30.3012 15.0411 29.2242 14.6238 28.3345 13.7892C27.4448 12.9779 27 11.8883 27 10.5205Z" fill="white"/>
<path d="M27.4214 17.2711L39.6368 17.2711V20.6577L38.171 20.948V21.0448C38.6433 21.5286 39.0505 22.1011 39.3925 22.7623C39.7508 23.4235 39.93 24.1976 39.93 25.0845C39.93 26.4231 39.4739 27.3987 38.5619 28.0116C37.6661 28.6244 36.4608 28.9308 34.9461 28.9308H27.4214V24.7701H34.4086C35.0927 24.7701 35.5894 24.6653 35.8989 24.4556C36.2084 24.2621 36.3631 23.8992 36.3631 23.367C36.3631 22.98 36.2816 22.6413 36.1188 22.3511C35.9559 22.0608 35.7279 21.7544 35.4347 21.4318H27.4214V17.2711Z" fill="#CF960F"/>
<path d="M27.1283 36.7589C27.1283 35.6946 27.3807 34.6866 27.8856 33.7352C28.3905 32.7837 29.1153 32.0096 30.06 31.4129C31.0209 30.8162 32.1773 30.5179 33.5291 30.5179C34.881 30.5179 36.0292 30.8162 36.9738 31.4129C37.9348 32.0096 38.6677 32.7837 39.1726 33.7352C39.6775 34.6867 39.93 35.6946 39.93 36.7589C39.93 37.8233 39.6775 38.8312 39.1726 39.7827C38.6677 40.7342 37.9348 41.5083 36.9738 42.105C36.0292 42.7017 34.881 43 33.5291 43C32.1773 43 31.0209 42.7017 30.06 42.105C29.1153 41.5083 28.3905 40.7342 27.8856 39.7827C27.3807 38.8312 27.1283 37.8233 27.1283 36.7589ZM30.4997 36.7589C30.4997 37.2266 30.6219 37.6056 30.8662 37.8959C31.1105 38.1862 31.4606 38.3958 31.9167 38.5248C32.3727 38.67 32.9102 38.7425 33.5291 38.7425C34.148 38.7425 34.6855 38.67 35.1415 38.5248C35.5976 38.3958 35.9477 38.1862 36.192 37.8959C36.4364 37.6056 36.5585 37.2266 36.5585 36.7589C36.5585 36.2913 36.4364 35.9123 36.192 35.622C35.9477 35.3317 35.5976 35.114 35.1415 34.9689C34.6855 34.8399 34.148 34.7753 33.5291 34.7753C32.9102 34.7753 32.3727 34.8399 31.9167 34.9689C31.4606 35.114 31.1105 35.3317 30.8662 35.622C30.6219 35.9123 30.4997 36.2913 30.4997 36.7589Z" fill="#CF960F"/>
</svg>
